<svg xmlns="http://www.w3.org/2000/svg" viewBox="0 0 20 24"><title>Suscríbete en YouTube</title><defs><style>.cls-1{fill:#fff;}</style></defs><title>social-youtube</title><path class="cls-1" d="M4.65,0H6.09l1,3.7L8,0H9.45L7.78,5.51V9.26H6.35V5.51Zm6.6,2.37A1.75,1.75,0,0,0,9.39,4.21V7.56a1.64,1.64,0,0,0,1.86,1.83,1.73,1.73,0,0,0,1.82-1.83V4.21A1.78,1.78,0,0,0,11.25,2.37Zm.53,5.13c0,.37-.19.65-.53.65a.58.58,0,0,1-.56-.65V4.32c0-.37.17-.65.53-.65s.56.27.56.65Zm4.73-5.07V7.62c-.16.19-.5.51-.75.51s-.34-.19-.34-.46V2.43H14.15V8.14c0,.67.21,1.22.89,1.22a2,2,0,0,0,1.47-.85v.75h1.27V2.43Zm2.2,13.86c-.45,0-.54.31-.54.76v.66h1.07v-.66C19.24,16.61,19.15,16.29,18.71,16.29Zm-4.7,0a.76.76,0,0,0-.25.2v4a1,1,0,0,0,.28.23.51.51,0,0,0,.62-.07.74.74,0,0,0,.11-.45V16.94a.85.85,0,0,0-.13-.5A.49.49,0,0,0,14,16.33Zm4.82-5.2c-2.6-.17-11.06-.17-13.66,0C2.35,11.33,2,13,2,17.5s.35,6.18,3.17,6.37c2.6.17,11.06.17,13.66,0C21.65,23.68,22,22,22,17.5S21.65,11.33,18.83,11.13ZM6.51,21.82H5.15V14.28H3.74V13H7.92v1.28H6.51v7.54Zm4.84,0H10.14V21.1a2.57,2.57,0,0,1-.69.61c-.65.37-1.55.36-1.55-1V15.31H9.11v5c0,.26.06.44.32.44a1.2,1.2,0,0,0,.71-.49V15.31h1.21v6.51ZM16,20.47c0,.81-.3,1.43-1.1,1.43a1.37,1.37,0,0,1-1.15-.58v.5H12.54V13h1.22v2.84a1.45,1.45,0,0,1,1.07-.61c.89,0,1.18.75,1.18,1.63v3.61Zm4.47-1.75H18.17V20c0,.49,0,.91.53.91s.54-.35.54-.91V19.5h1.24V20c0,1.26-.53,2-1.81,2s-1.75-.84-1.75-2V17.06a1.79,1.79,0,0,1,1.84-1.91c1.16,0,1.72.74,1.72,1.91v1.66Z" transform="translate(-2)"></path></svg>